# xmcd
#
# Track frame offsets: 
#        200
#        59150
#        81385
#        112115
#        129322
#        139547
#        147875
#        193100
#        209000
#
# Disc length: 3009 seconds
#
# Revision: 1
# Processed by: cddbd v1.5.2PL0 Copyright (c) Steve Scherf et al.
# Submitted via: ExactAudioCopy v1.0b3
#
DISCID=910bbf09
DTITLE=Georg Graewe - Chamber Works 1990-1992
DYEAR=1993
DGENRE=Jazz
TTITLE0=15 Duets
TTITLE1=Flavours A - Part A
TTITLE2=Flavours A - Part B
TTITLE3=Flavours A - Part C
TTITLE4=Flavours A - Part D
TTITLE5=Flavours A - Part E
TTITLE6=Variations Q - I
TTITLE7=Variations Q - II
TTITLE8=Variations Q - III
EXTD=YEAR: 1993
EXTT0=
EXTT1=
EXTT2=
EXTT3=
EXTT4=
EXTT5=
EXTT6=
EXTT7=
EXTT8=
PLAYORDER=
